<?xml version="1.0" standalone="no"?>
<!DOCTYPE svg PUBLIC "-//W3C//DTD SVG 20010904//EN"
 "http://www.w3.org/TR/2001/REC-SVG-20010904/DTD/svg10.dtd">
<svg version="1.0" xmlns="http://www.w3.org/2000/svg"
 width="349.000000pt" height="270.000000pt" viewBox="0 0 349.000000 270.000000"
 preserveAspectRatio="xMidYMid meet">

<g transform="translate(0.000000,270.000000) scale(0.100000,-0.100000)"
fill="#000000" stroke="none">
<path d="M2073 2351 c-28 -16 -72 -46 -98 -67 l-47 -38 47 -18 46 -18 46 35
c25 19 54 35 65 35 17 0 17 -2 4 -29 -9 -16 -27 -43 -41 -60 l-26 -31 -48 24
c-90 46 -165 60 -318 61 l-142 0 -33 31 c-63 60 -140 84 -268 84 -92 0 -114
-7 -108 -36 3 -17 16 -20 118 -25 119 -5 188 -25 219 -63 16 -20 18 -18 -42
-40 -94 -35 -177 -119 -177 -178 0 -71 55 -119 139 -120 59 0 107 20 148 62
42 43 56 88 51 160 l-4 58 35 6 c91 15 251 -6 336 -43 l49 -21 -33 -34 c-17
-18 -50 -43 -71 -55 -37 -21 -40 -21 -40 -4 0 10 14 36 30 57 33 43 30 52 -16
62 -28 5 -34 1 -89 -68 -33 -40 -152 -181 -265 -312 -325 -379 -370 -433 -370
-445 0 -28 40 -1 187 125 605 521 729 620 751 602 21 -18 49 -79 56 -123 8
-50 -15 -141 -50 -196 -93 -148 -248 -234 -476 -263 -102 -14 -125 -23 -115
-50 9 -22 88 -21 202 3 115 24 188 52 261 100 228 148 305 396 176 560 -20 24
-20 24 14 71 120 167 57 289 -103 201z m-525 -246 c3 -66 -23 -110 -83 -136
-67 -30 -135 -5 -135 49 0 35 66 95 132 121 74 29 82 25 86 -34z"/>
<path d="M2932 956 c-7 -19 -29 -48 -48 -65 -28 -25 -44 -31 -79 -31 -25 0
-45 -4 -45 -10 0 -5 13 -10 29 -10 l28 0 5 -147 c6 -169 17 -205 73 -229 46
-19 109 -18 148 4 l32 17 -42 3 c-68 5 -73 20 -73 199 l0 153 50 0 c28 0 50 5
50 10 0 6 -22 10 -50 10 l-50 0 0 65 c0 72 -10 83 -28 31z"/>
<path d="M320 940 c0 -5 10 -10 23 -10 19 0 35 -30 126 -235 57 -129 109 -235
116 -235 6 0 38 66 70 148 32 81 61 150 64 154 3 4 37 -62 75 -147 37 -85 74
-155 81 -155 7 0 45 96 92 233 l80 232 31 3 c62 6 31 22 -43 22 -75 0 -105
-16 -41 -22 l33 -3 -45 -128 c-25 -70 -47 -125 -50 -123 -4 5 -112 248 -112
254 0 1 9 2 20 2 11 0 20 5 20 10 0 6 -47 10 -120 10 -73 0 -120 -4 -120 -10
0 -5 8 -10 18 -10 12 0 26 -21 45 -66 l28 -66 -27 -69 c-15 -38 -28 -68 -30
-67 -5 6 -102 225 -108 246 -6 18 -3 22 13 22 12 0 21 5 21 10 0 6 -50 10
-130 10 -80 0 -130 -4 -130 -10z"/>
<path d="M2510 940 c0 -5 9 -10 20 -10 19 0 20 -7 20 -229 l0 -230 -22 -4
c-13 -2 27 -4 87 -4 61 0 100 2 88 4 l-23 4 0 230 c0 222 1 229 20 229 11 0
20 5 20 10 0 6 -42 10 -105 10 -63 0 -105 -4 -105 -10z"/>
<path d="M1276 855 c-89 -32 -130 -91 -130 -189 1 -76 16 -125 52 -159 73 -70
228 -76 308 -12 41 33 24 41 -21 10 -45 -30 -117 -34 -154 -9 -26 19 -51 71
-51 109 l0 25 130 0 130 0 0 26 c0 92 -60 182 -135 203 -52 14 -81 13 -129 -4z
m108 -27 c8 -13 19 -50 25 -82 18 -100 21 -96 -64 -96 l-74 0 5 53 c7 59 22
116 37 135 16 20 55 14 71 -10z"/>
<path d="M1746 859 c-83 -14 -137 -70 -117 -122 15 -38 46 -52 82 -37 33 14
40 34 37 100 -3 44 -2 45 28 48 45 4 60 -16 67 -94 7 -73 2 -84 -40 -84 -105
-1 -193 -57 -193 -123 0 -49 8 -65 41 -82 39 -21 106 -18 157 5 38 17 45 18
58 5 23 -22 81 -29 127 -15 39 12 40 14 17 20 -25 6 -25 7 -31 145 -4 77 -11
151 -17 165 -16 41 -46 60 -108 70 -33 6 -59 9 -59 9 0 -1 -22 -5 -49 -10z
m104 -265 c0 -82 -11 -104 -52 -104 -45 0 -68 25 -68 75 0 55 38 92 98 94 21
1 22 -3 22 -65z"/>
<path d="M2324 856 c-16 -7 -38 -29 -47 -47 l-17 -34 0 43 0 42 -90 0 c-53 0
-90 -4 -90 -10 0 -5 11 -10 25 -10 l25 0 -2 -182 -3 -182 -25 -7 c-14 -4 27
-7 90 -7 63 1 104 3 92 5 l-24 5 4 136 c3 109 8 145 23 175 21 42 40 48 51 15
10 -37 35 -58 65 -58 48 0 76 63 46 104 -17 23 -84 30 -123 12z"/>
</g>
</svg>
